,
.   http://www.scenetime.com/signup.php  ---&gt;  Hottest scene tracker on the net !!!  

    Join Now   http://www.scenetime.com/signup.php

    seed back for speed


 



...................................NFO:.................................................Margin Call 2011 R5 XViD - REBORN

SOURCES THANKED:
AUDIO....Hive-CM8
video....Russian DVD9
 
http://www.imdb.com/title/tt1615147/


Video
ID                               : 0
Format                           : MPEG-4 Visual
Format profile                   : Advanced Simple@L5
Format settings, BVOP            : 2
Format settings, QPel            : No
Format settings, GMC             : No warppoints
Format settings, Matrix          : Default (MPEG)
Muxing mode                      : Packed bitstream
Codec ID                         : XVID
Codec ID/Hint                    : XviD
Duration                         : 1h 42mn
Bit rate                         : 1 720 Kbps
Width                            : 720 pixels
Height                           : 384 pixels
Display aspect ratio             : 1.875
Frame rate                       : 25.000 fps
Color space                      : YUV
Chroma subsampling               : 4:2:0
Bit depth                        : 8 bits
Scan type                        : Progressive
Compression mode                 : Lossy
Bits/(Pixel*Frame)               : 0.249
Stream size                      : 1.23 GiB (79%)
Writing library                  : XviD 64

Audio
ID                               : 1
Format                           : AC-3
Format/Info                      : Audio Coding 3
Mode extension                   : CM (complete main)
Codec ID                         : 2000
Duration                         : 1h 42mn
Bit rate mode                    : Constant
Bit rate                         : 448 Kbps
Channel(s)                       : 6 channels
Channel positions                : Front: L C R, Side: L R, LFE
Sampling rate                    : 48.0 KHz
Bit depth                        : 16 bits
Compression mode                 : Lossy
Stream size                      : 327 MiB (21%)
Alignment                        : Split accross interleaves
Interleave, duration             : 40 ms (1.00 video frame)
Interleave, preload duration     : 500 ms


WORKDONE:

Ok took the dvd9 and ripped it,but the video was nice but had faults...colours slightly
off,video noise etc...
So made a .avs dropped into vdub and used brightness,contrast,rgb eq,smoother HQ,resize,
sharpen and fixed it so it looked good too me :P
Audio i stripped hives and remuxed to my encode....so syncing etc..is thanks to them.

[IMG]http://i.imgur.com/VJPNi.png[/IMG]
[IMG]http://i.imgur.com/vmnpo.png[/IMG]
[IMG]http://i.imgur.com/cV47T.png[/IMG]
[IMG]http://i.imgur.com/gJQNC.png[/IMG]